<?xml version="1.0" standalone="no"?>
<!DOCTYPE svg PUBLIC "-//W3C//DTD SVG 20010904//EN"
 "http://www.w3.org/TR/2001/REC-SVG-20010904/DTD/svg10.dtd">
<svg version="1.0" xmlns="http://www.w3.org/2000/svg"
 width="512.000000pt" height="512.000000pt" viewBox="0 0 512.000000 512.000000"
 preserveAspectRatio="xMidYMid meet">

<g transform="translate(0.000000,512.000000) scale(0.100000,-0.100000)"
fill="#000000" stroke="none">
<path d="M1008 4543 l-578 -578 0 -1632 c0 -1607 0 -1632 20 -1696 36 -117
137 -222 255 -266 31 -12 60 -21 64 -21 5 0 11 -14 15 -30 21 -108 118 -223
235 -279 l76 -36 1630 0 c1554 0 1632 1 1682 18 117 41 220 146 263 270 20 56
20 83 20 2091 0 2015 0 2035 -20 2100 -41 131 -148 235 -287 276 -33 10 -42
18 -47 41 -21 108 -117 221 -233 277 l-78 37 -1220 3 -1219 2 -578 -577z
m2918 375 c15 -18 39 -58 53 -88 l26 -55 0 -2045 0 -2045 -23 -49 c-12 -28
-34 -65 -48 -83 l-25 -33 -1551 0 c-1133 0 -1561 3 -1589 11 -51 16 -103 60
-137 117 l-27 47 -3 1573 -2 1572 374 0 c334 0 380 2 433 18 143 45 249 158
289 307 10 37 14 143 14 418 l0 367 1094 0 1094 0 28 -32z"/>
<path d="M2037 4089 c-162 -38 -295 -180 -327 -348 -5 -30 -10 -134 -10 -232
l0 -179 -199 0 c-170 0 -208 -3 -262 -20 -120 -37 -211 -117 -266 -236 l-28
-59 -3 -348 c-3 -393 -1 -409 67 -514 45 -69 124 -134 203 -166 47 -19 77 -22
271 -25 l217 -4 0 -177 c0 -98 5 -202 10 -232 33 -173 168 -312 338 -348 84
-18 623 -15 695 4 178 46 302 182 327 360 5 39 10 143 10 232 l0 161 218 4
c215 3 217 3 280 32 122 56 206 148 242 263 18 60 20 93 20 392 0 303 -2 332
-20 387 -45 130 -151 235 -277 274 -56 17 -93 20 -264 20 l-199 0 0 163 c0 89
-5 194 -10 232 -26 180 -161 326 -338 364 -63 13 -638 13 -695 0z m1489 -962
c64 -33 110 -87 129 -151 22 -72 22 -590 0 -662 -20 -67 -64 -117 -133 -151
l-57 -28 -557 -3 -557 -3 -26 -31 c-31 -36 -29 -79 6 -113 18 -19 35 -20 294
-23 l275 -3 0 -188 c0 -208 -8 -250 -60 -313 -17 -20 -53 -48 -82 -62 l-52
-26 -315 0 c-311 0 -317 1 -366 24 -60 28 -97 66 -124 126 -20 43 -21 64 -21
436 0 423 2 438 55 508 14 18 49 46 77 62 l53 29 340 5 c381 6 390 8 495 85
117 86 170 207 170 389 0 62 3 116 8 120 4 4 95 6 202 4 188 -4 197 -5 246
-31z"/>
<path d="M2500 1765 c-34 -37 -33 -90 4 -121 46 -40 103 -29 131 27 44 83 -71
162 -135 94z"/>
<path d="M876 909 c-28 -33 -32 -53 -16 -94 26 -68 204 -73 239 -7 19 35 13
81 -14 107 -21 22 -33 25 -104 25 -76 0 -80 -1 -105 -31z"/>
<path d="M1305 915 c-33 -32 -33 -84 -1 -122 l24 -28 677 0 677 0 24 28 c32
38 32 90 -1 122 l-24 25 -676 0 -676 0 -24 -25z"/>
<path d="M3014 916 c-38 -32 -39 -86 -1 -124 l27 -27 393 -3 c429 -4 457 -1
482 48 22 43 19 68 -14 101 l-29 29 -416 0 -415 0 -27 -24z"/>
</g>
</svg>
