<?xml version="1.0" standalone="no"?>
<!DOCTYPE svg PUBLIC "-//W3C//DTD SVG 20010904//EN"
 "http://www.w3.org/TR/2001/REC-SVG-20010904/DTD/svg10.dtd">
<svg version="1.0" xmlns="http://www.w3.org/2000/svg"
 width="512.000000pt" height="512.000000pt" viewBox="0 0 512.000000 512.000000"
 preserveAspectRatio="xMidYMid meet">

<g transform="translate(0.000000,512.000000) scale(0.100000,-0.100000)"
fill="#000000" stroke="none">
<path d="M267 4900 c-103 -18 -195 -90 -240 -188 -21 -45 -22 -61 -25 -459
l-3 -413 2561 0 2561 0 -3 413 -3 412 -28 57 c-34 68 -108 139 -175 165 -45
17 -138 18 -2322 19 -1251 1 -2296 -2 -2323 -6z m1118 -344 c122 -66 141 -244
35 -340 -137 -123 -349 -26 -350 160 0 123 113 223 235 207 22 -3 58 -15 80
-27z"/>
<path d="M3520 1065 l0 -425 640 0 640 0 0 425 0 425 -640 0 -640 0 0 -425z"/>
</g>
</svg>
